@startuml Concurso Fotografia Lu

[*] --> Inicio
state c1 <<choice>>
state c2 <<choice>>
state c3 <<choice>>

state presentada
state preseleccion
state participantes
state ganadores
state publicadas
state rechazada

Inicio --> presentada
presentada --> c1: Tiene datos del autor y Responde al tema solicitado?
c1 --> rechazada: No
rechazada --> [*]
c1 --> preseleccion: Si
preseleccion --> c2: fueron elegidas como semifinalistas?
c2 --> participantes: No
participantes --> publicadas: publicar
c2 --> semi_finalistas: si
semi_finalistas --> c3: Fueron elegidas como ganadores?
c3 --> participantes: No
c3 --> ganadores: Si
ganadores --> publicadas: Publicar
publicadas --> [*]

@enduml